<svg xmlns="http://www.w3.org/2000/svg" width="52.834" height="52.834" viewBox="0 0 52.834 52.834"><defs><style>.a{opacity:0.3;}.b{fill:#fff;}</style></defs><g transform="translate(-2 -2)"><g class="a" transform="translate(6.403 2.881)"><path class="b" d="M51,13h5.283V23.567H51Z" transform="translate(-12.255 -4.194)"/><path class="b" d="M51,3h5.283V6.522H51Z" transform="translate(-12.255 -3)"/><path class="b" d="M52.044,29.35v4.975H48.522V29.35a5.275,5.275,0,0,0,0,9.95V53.7h3.522V39.3a5.275,5.275,0,0,0,0-9.95Z" transform="translate(-11.539 -6.147)"/><path class="b" d="M39,45V55.567h3.522V45H39Z" transform="translate(-10.822 -8.016)"/><path class="b" d="M27.13,37.26l2.783-2.783-3.734-3.734L23.4,33.526a9.218,9.218,0,0,0-1.427-.6V29H16.686v3.927a9.218,9.218,0,0,0-1.427.6l-2.783-2.783L8.744,34.477l2.783,2.783a9.218,9.218,0,0,0-.6,1.427H7V43.97h3.927a9.218,9.218,0,0,0,.6,1.427L8.744,48.179l3.734,3.734L15.26,49.13a9.219,9.219,0,0,0,1.427.6v3.927H21.97V49.728a9.218,9.218,0,0,0,1.427-.6l2.783,2.783,3.734-3.734L27.13,45.4a9.218,9.218,0,0,0,.6-1.427h3.927V38.686H27.728A9.218,9.218,0,0,0,27.13,37.26Zm-7.8,9.352a5.283,5.283,0,1,1,5.283-5.283A5.283,5.283,0,0,1,19.328,46.611Z" transform="translate(-7 -6.105)"/><path class="b" d="M7,13h5.283V23.567H7Z" transform="translate(-7 -4.194)"/><path class="b" d="M7,3h5.283V6.522H7Z" transform="translate(-7 -3)"/></g><path class="b" d="M53.953,12.567a.881.881,0,0,0,.881-.881V6.4a.881.881,0,0,0-.881-.881H51.312V2.881A.881.881,0,0,0,50.431,2H45.148a.881.881,0,0,0-.881.881V5.522h-31.7V2.881A.881.881,0,0,0,11.686,2H6.4a.881.881,0,0,0-.881.881V5.522H2.881A.881.881,0,0,0,2,6.4v5.283a.881.881,0,0,0,.881.881H5.522v8.806H2.881A.881.881,0,0,0,2,22.253v31.7a.881.881,0,0,0,.881.881H53.953a.881.881,0,0,0,.881-.881v-31.7a.881.881,0,0,0-.881-.881H51.312V12.567ZM46.028,3.761H49.55V5.522H46.028Zm-38.745,0h3.522V5.522H7.283ZM3.761,7.283H53.073v3.522H3.761Zm8.806,14.089V12.567h31.7v8.806ZM7.283,12.567h3.522v8.806H7.283ZM53.073,53.073H3.761V23.134H53.073Zm-3.522-31.7H46.028V12.567H49.55Z"/><path class="b" d="M8,33.737a.881.881,0,0,0,0,1.245l2.339,2.338c-.054.122-.1.244-.154.366h-3.3A.881.881,0,0,0,6,38.567V43.85a.881.881,0,0,0,.881.881h3.3c.049.122.1.244.154.366L8,47.435A.881.881,0,0,0,8,48.68l3.736,3.736a.881.881,0,0,0,1.245,0l2.338-2.339c.122.055.244.1.366.153v3.306a.881.881,0,0,0,.881.881H21.85a.881.881,0,0,0,.881-.881V50.231c.122-.048.244-.1.366-.153l2.338,2.339a.881.881,0,0,0,1.245,0l3.736-3.736a.881.881,0,0,0,0-1.245L28.077,45.1c.054-.122.1-.244.154-.366h3.3a.881.881,0,0,0,.881-.881V38.567a.881.881,0,0,0-.881-.881h-3.3c-.049-.122-.1-.244-.154-.366l2.339-2.338a.881.881,0,0,0,0-1.245L26.68,30a.881.881,0,0,0-1.245,0L23.1,32.339c-.122-.055-.244-.1-.366-.153V28.881A.881.881,0,0,0,21.85,28H16.567a.881.881,0,0,0-.881.881v3.306c-.122.048-.244.1-.366.153L12.982,30a.881.881,0,0,0-1.245,0Zm6.516.29a.881.881,0,0,0,1.03.158,7.994,7.994,0,0,1,1.284-.537.881.881,0,0,0,.616-.84V29.761H20.97v3.046a.881.881,0,0,0,.616.84,7.993,7.993,0,0,1,1.284.537.881.881,0,0,0,1.03-.158l2.157-2.157,2.49,2.49L26.39,36.517a.881.881,0,0,0-.158,1.03,7.883,7.883,0,0,1,.537,1.285.881.881,0,0,0,.84.616h3.046V42.97H27.61a.881.881,0,0,0-.84.616,7.883,7.883,0,0,1-.537,1.285.881.881,0,0,0,.158,1.03l2.157,2.157-2.49,2.49L23.9,48.392a.881.881,0,0,0-1.03-.158,7.994,7.994,0,0,1-1.284.537.881.881,0,0,0-.616.84v3.044H17.447V49.61a.881.881,0,0,0-.616-.84,7.994,7.994,0,0,1-1.284-.537.881.881,0,0,0-1.03.158l-2.157,2.157-2.49-2.49L12.027,45.9a.881.881,0,0,0,.158-1.03,7.883,7.883,0,0,1-.537-1.285.881.881,0,0,0-.84-.616H7.761V39.447h3.046a.881.881,0,0,0,.84-.616,7.883,7.883,0,0,1,.537-1.285.881.881,0,0,0-.158-1.03L9.869,34.359l2.49-2.49Z" transform="translate(-0.478 -3.105)"/><path class="b" d="M20.164,48.328A6.164,6.164,0,1,0,14,42.164,6.164,6.164,0,0,0,20.164,48.328Zm0-10.567a4.4,4.4,0,1,1-4.4,4.4,4.4,4.4,0,0,1,4.4-4.4Z" transform="translate(-1.433 -4.061)"/><path class="b" d="M47.522,39.77V53.578a.881.881,0,0,0,.881.881h3.522a.881.881,0,0,0,.881-.881V39.77A6.156,6.156,0,0,0,52.215,28.4a.881.881,0,0,0-1.17.832v4.095H49.283V29.23a.881.881,0,0,0-1.17-.832,6.156,6.156,0,0,0-.591,11.372Zm0-9.087v3.522a.881.881,0,0,0,.881.881h3.522a.881.881,0,0,0,.881-.881V30.683a4.4,4.4,0,0,1-1.173,7.668.881.881,0,0,0-.588.829V52.7H49.283V39.181a.881.881,0,0,0-.588-.83,4.4,4.4,0,0,1-1.173-7.667Z" transform="translate(-5.016 -3.147)"/><path class="b" d="M38.881,54.536H42.4a.881.881,0,0,0,.881-.881V43.089a.881.881,0,0,0-.881-.881h-.881V29H39.761V42.208h-.881a.881.881,0,0,0-.881.881V53.656A.881.881,0,0,0,38.881,54.536Zm.881-10.567h1.761v8.806H39.761Z" transform="translate(-4.3 -3.225)"/></g></svg>